<?xml version="1.0" standalone="no"?>
<!DOCTYPE svg PUBLIC "-//W3C//DTD SVG 1.1//EN" "http://www.w3.org/Graphics/SVG/1.1/DTD/svg11.dtd" >
<svg>
<metadata>
Created by FontForge 20110222 at Mon Mar  7 11:41:02 2011
 By www-data
Copyright &#60;C&#62; Rubicon Computer Labs Inc., 1993-94
</metadata>
<defs>
<font id="KaratMedium-Normal" horiz-adv-x="1024" >
  <font-face 
    font-family="KaratMedium"
    font-weight="500"
    font-stretch="normal"
    units-per-em="2048"
    panose-1="2 0 6 3 0 0 0 0 0 0"
    ascent="1638"
    descent="-410"
    x-height="1036"
    cap-height="1438"
    bbox="-168 -463 2048 1907"
    underline-thickness="151"
    underline-position="-181"
    unicode-range="U+0020-2122"
  />
    <missing-glyph />
    <glyph glyph-name="space" unicode=" " horiz-adv-x="569" 
 />
    <glyph glyph-name="exclam" unicode="!" horiz-adv-x="569" 
d="M420 1438l-31 -963l-160 -33l-18 963zM432 158l-133 -176l-133 176l133 176z" />
    <glyph glyph-name="quotedbl" unicode="&#x22;" horiz-adv-x="681" 
d="M571 850h-168v555h168v-555zM276 850h-167v555h167v-555z" />
    <glyph glyph-name="numbersign" unicode="#" horiz-adv-x="1138" 
d="M1063 848h-201l-41 -291h185v-127h-201l-62 -430h-143l59 430h-239l-60 -430h-145l61 430h-198v127h217l39 291h-199v127h217l58 430h147l-59 -430h237l60 430h145l-59 -430h182v-127zM717 848h-238l-41 -291h240z" />
    <glyph glyph-name="dollar" unicode="$" horiz-adv-x="1138" 
d="M985 504q0 -81 -32 -152.5t-82 -118.5t-108 -74t-112 -28v-194l-141 -35v229q-217 3 -371 199l146 112q108 -135 225 -137v379q-178 37 -257 124t-79 247q0 86 50.5 161t127.5 118t158 46v146l141 28v-174q177 -11 312 -157l-132 -121q-47 47 -87 70.5t-93 33.5v-350
q148 -24 241 -112t93 -240zM510 885v321q-60 0 -106 -46t-46 -109q0 -71 38.5 -116.5t113.5 -49.5zM801 487q0 78 -42.5 119t-107.5 53v-354q72 0 111 53.5t39 128.5z" />
    <glyph glyph-name="percent" unicode="%" horiz-adv-x="1820" 
d="M1573 340q0 -147 -94 -243.5t-240 -96.5q-143 0 -238.5 95t-95.5 245q0 148 92 246t244 98q145 0 238.5 -96.5t93.5 -247.5zM1329 1438l-799 -1471h-114l659 1200l-4 4q-21 -29 -64.5 -47t-82.5 -18q-65 0 -107 39l-4 -2q12 -30 12 -82q0 -146 -93 -243t-240 -97
q-146 0 -240 96t-94 244q0 152 94.5 248t234.5 96q70 0 120 -18.5t106 -61.5q44 -34 68.5 -50.5t61 -30t75.5 -13.5q164 0 290 207h121zM1425 342q0 83 -55 139t-131 56q-77 0 -131.5 -57t-54.5 -140q0 -78 55 -135.5t131 -57.5t131 56.5t55 138.5zM678 1057q0 84 -56 142
t-128 58q-80 0 -134.5 -60t-54.5 -140q0 -81 55 -135t134 -54q76 0 130 54t54 135z" />
    <glyph glyph-name="ampersand" unicode="&#x26;" horiz-adv-x="1366" 
d="M1264 100l-129 -116l-236 276q-61 -76 -105.5 -124.5t-96 -90t-102.5 -60t-108 -18.5q-173 0 -278 107.5t-105 265.5q0 51 14 97t37 86t68 87.5t92.5 90t124.5 106.5q-79 96 -118 167.5t-39 158.5q0 132 96 218.5t229 86.5q129 0 218 -88t89 -215q0 -98 -57.5 -184.5
t-169.5 -172.5l215 -250l230 265l127 -119l-252 -279zM741 1118q0 70 -38 113t-97 43q-63 0 -101 -44t-38 -112q0 -46 32 -105.5t87 -103.5q36 29 55 46t46.5 46.5t40.5 58t13 58.5zM784 397l-229 279q-20 -19 -63 -55t-69.5 -61t-57 -60.5t-45.5 -73.5t-15 -80
q0 -85 46.5 -139.5t129.5 -54.5q23 0 45 5.5t42 15.5t39 24t37 31t36 36.5t34.5 41.5t34.5 45t35 46z" />
    <glyph glyph-name="quoteright" unicode="&#x2019;" horiz-adv-x="454" 
d="M379 1210q0 -45 -44.5 -121t-150.5 -210l-106 77q117 169 117 215q0 41 -22 63.5t-79 49.5l123 154q162 -105 162 -228z" />
    <glyph glyph-name="parenleft" unicode="(" horiz-adv-x="796" 
d="M649 1323q-166 -144 -258 -337t-92 -417q0 -460 338 -762l-92 -112q-181 141 -289.5 366.5t-108.5 479.5q0 259 104 490t308 407z" />
    <glyph glyph-name="parenright" unicode=")" horiz-adv-x="796" 
d="M649 592q0 -260 -103.5 -491t-307.5 -406l-91 115q167 144 259 336.5t92 416.5q0 458 -338 762l92 113q180 -142 288.5 -367t108.5 -479z" />
    <glyph glyph-name="asterisk" unicode="*" horiz-adv-x="909" 
d="M829 1190l-256 -146l228 -118l-31 -129l-254 143v-264l-121 -37v299l-235 -141l-80 94l264 151l-248 136l39 116l260 -151v268l121 27v-293l221 143z" />
    <glyph glyph-name="plus" unicode="+" horiz-adv-x="1228" 
d="M1133 434h-435v-434h-168v434h-434v168h434v434h168v-434h435v-168z" />
    <glyph glyph-name="comma" unicode="," horiz-adv-x="569" 
d="M465 274l-244 -663l-149 -10l184 651z" />
    <glyph glyph-name="hyphen" unicode="-" horiz-adv-x="681" 
d="M584 428h-488v180h488v-180z" />
    <glyph glyph-name="period" unicode="." horiz-adv-x="569" 
d="M418 158l-133 -176l-133 176l133 176z" />
    <glyph glyph-name="slash" unicode="/" horiz-adv-x="569" 
d="M602 1438l-514 -1471h-123l512 1471h125z" />
    <glyph glyph-name="zero" unicode="0" horiz-adv-x="1138" 
d="M1079 702q0 -215 -58 -379.5t-174.5 -260t-277.5 -95.5q-106 0 -192.5 41.5t-144.5 111.5t-98 164.5t-57.5 197.5t-17.5 214q0 155 31.5 287.5t92.5 235t160 161t226 58.5q128 0 228 -59.5t160.5 -162.5t91 -233t30.5 -281zM879 702q0 119 -17 216t-52.5 173.5t-96 119
t-142.5 42.5q-85 0 -146.5 -43t-96.5 -120.5t-51.5 -173.5t-16.5 -214q0 -262 78 -406t233 -144q80 0 140.5 41.5t96.5 117t53.5 173t17.5 218.5z" />
    <glyph glyph-name="one" unicode="1" horiz-adv-x="1138" 
d="M733 0l-201 -16v1103l-286 -178l-72 127l555 402h4v-1438z" />
    <glyph glyph-name="two" unicode="2" horiz-adv-x="1138" 
d="M1044 184l-36 -184h-920l475 551q50 57 78.5 91.5t67.5 88t60 92.5t36.5 87t15.5 91q0 119 -75 185.5t-195 66.5q-116 0 -194 -77t-78 -181q0 -122 62 -205.5t179 -95.5l-127 -159q-142 45 -220.5 170.5t-78.5 289.5q0 195 135 319t332 124q202 0 331.5 -120t129.5 -319
q0 -61 -17 -125t-53.5 -129.5t-71.5 -119t-94.5 -123t-96.5 -110t-104.5 -111t-92.5 -97.5h552z" />
    <glyph glyph-name="three" unicode="3" horiz-adv-x="1138" 
d="M1012 397q0 -102 -40.5 -186t-106.5 -136t-145 -80t-161 -28q-175 0 -290 57.5t-208 194.5l150 115q69 -97 142.5 -139.5t174.5 -42.5q125 0 204 67t79 184q0 114 -83 183t-220 69h-139v174h88q161 0 236 46t75 161q0 107 -71.5 162t-178.5 55q-181 0 -270 -151l-156 123
q169 213 428 213q76 0 153 -24.5t144 -70t109.5 -121.5t42.5 -169q0 -206 -193 -299q109 -46 172.5 -142t63.5 -215z" />
    <glyph glyph-name="four" unicode="4" horiz-adv-x="1138" 
d="M1063 498l-33 -156h-201v-342l-188 -16v358h-616l800 1096h4v-940h234zM641 498v452h-6l-307 -452h313z" />
    <glyph glyph-name="five" unicode="5" horiz-adv-x="1138" 
d="M1028 459q0 -110 -44.5 -203.5t-119.5 -156t-173 -97.5t-204 -35q-132 0 -236 52t-198 165l164 111q62 -70 125.5 -106.5t142.5 -36.5q139 0 240.5 82.5t101.5 224.5q0 133 -98 221t-242 88q-75 0 -150 -31t-134 -88v756h741l-49 -184h-492v-289q72 20 136 20
q96 0 186.5 -40t156.5 -107t106 -158t40 -188z" />
    <glyph glyph-name="six" unicode="6" horiz-adv-x="1138" 
d="M1063 455q0 -208 -142 -348t-348 -140q-73 0 -144 19t-134.5 58.5t-111.5 95.5t-76.5 135.5t-28.5 173.5q0 123 24 207.5t80 197.5q118 232 416 584l182 -99q-60 -66 -115 -123.5t-130.5 -152t-147.5 -199.5l4 -6q98 72 221 72q88 0 170 -36.5t144 -98.5t99.5 -151.5
t37.5 -188.5zM862 451q0 125 -76 215t-206 90q-127 0 -214 -88t-87 -219q0 -120 83 -208.5t211 -88.5q125 0 207 80.5t82 218.5z" />
    <glyph glyph-name="seven" unicode="7" horiz-adv-x="1138" 
d="M1018 1405l-451 -1405l-223 -25l426 1246h-659l49 184h858z" />
    <glyph glyph-name="eight" unicode="8" horiz-adv-x="1138" 
d="M1057 367q0 -91 -32 -162t-83.5 -115t-121 -72.5t-138.5 -39.5t-143 -11q-118 0 -222.5 49t-169.5 137.5t-65 194.5q0 134 65 226.5t201 154.5q-56 31 -102.5 70.5t-83.5 106.5t-37 143q0 120 61.5 210t161 134.5t219.5 44.5q187 0 310.5 -97t123.5 -262
q0 -108 -55 -187.5t-166 -141.5q125 -50 201 -145.5t76 -237.5zM817 1044q0 97 -69 153t-189 56q-104 0 -177 -49.5t-73 -138.5q0 -193 271 -264q112 42 174.5 100t62.5 143zM856 365q0 31 -5 57.5t-15.5 47.5t-25 39.5t-34 33.5t-43 28.5t-51.5 26t-59.5 25t-67.5 25.5
q-8 3 -12 5q-54 -19 -96 -40.5t-81.5 -53t-61 -75t-21.5 -95.5q0 -111 75.5 -174t212.5 -63q134 0 209.5 56.5t75.5 156.5z" />
    <glyph glyph-name="nine" unicode="9" horiz-adv-x="1138" 
d="M1071 928q0 -175 -90 -357q-26 -51 -58.5 -104.5t-67 -103t-74 -101.5t-78.5 -99.5t-81 -98.5t-81 -97l-179 99q73 74 120.5 126.5t124 148t149.5 202.5l-4 4q-36 -26 -96.5 -49t-102.5 -23q-103 0 -194.5 37.5t-154.5 100.5t-99.5 145.5t-36.5 171.5q0 138 64.5 254
t181.5 185t261 69q93 0 182.5 -38t159 -103.5t112 -162.5t42.5 -206zM870 963q0 124 -94.5 207t-214.5 83q-122 0 -207.5 -90t-85.5 -219q0 -113 87 -204t218 -91q120 0 208.5 96t88.5 218z" />
    <glyph glyph-name="colon" unicode=":" horiz-adv-x="569" 
d="M418 713l-133 -176l-133 176l133 176zM418 158l-133 -176l-133 176l133 176z" />
    <glyph glyph-name="semicolon" unicode=";" horiz-adv-x="569" 
d="M418 713l-133 -176l-133 176l133 176zM401 274l-256 -673h-149l190 641z" />
    <glyph glyph-name="less" unicode="&#x3c;" horiz-adv-x="1228" 
d="M1133 -16l-1037 460v148l1037 461v-168l-824 -367l824 -366v-168z" />
    <glyph glyph-name="equal" unicode="=" horiz-adv-x="1228" 
d="M1133 647h-1037v168h1037v-168zM1133 221h-1037v168h1037v-168z" />
    <glyph glyph-name="greater" unicode="&#x3e;" horiz-adv-x="1228" 
d="M1133 444l-1037 -460v168l824 366l-824 367v168l1037 -461v-148z" />
    <glyph glyph-name="question" unicode="?" 
d="M872 1044q0 -64 -16 -119t-41.5 -93t-56 -71t-61 -59.5t-56 -51.5t-41.5 -53.5t-16 -59.5v-82l-174 -25v123q0 41 15.5 78.5t40 68t54 60.5t59 61.5t54 65t40 77.5t15.5 93q0 100 -52.5 153.5t-137.5 53.5q-87 0 -140 -61t-59 -152l-174 71q12 130 123.5 223t255.5 93
q167 0 267.5 -114.5t100.5 -279.5zM633 158l-133 -176l-133 176l133 176z" />
    <glyph glyph-name="at" unicode="@" horiz-adv-x="1638" 
d="M1528 831q0 -105 -34 -199.5t-87 -159t-117.5 -112.5t-126.5 -71t-112 -23t-83 30.5t-36 86.5h-4q-114 -117 -232 -117q-112 0 -201 89t-89 235q0 93 31.5 185.5t86.5 167.5t140 122t184 47q157 0 227 -145l37 114h141l-149 -549q-14 -51 -14 -75q0 -51 40 -51
q92 0 177.5 122t85.5 281q0 221 -151.5 359.5t-391.5 138.5q-165 0 -299.5 -78t-211.5 -218t-77 -315q0 -169 79 -306t217 -214.5t308 -77.5q131 0 250 51t209 152h141q-59 -94 -137 -162t-160.5 -104t-158 -52t-150.5 -16q-207 0 -379 98t-271 266.5t-99 370.5
q0 151 59 288t158.5 235t236 155.5t285.5 57.5q138 0 263 -46t216 -125.5t145 -193t54 -242.5zM1016 780q0 75 -48.5 128t-107.5 53q-83 0 -150.5 -59.5t-101 -140.5t-33.5 -157q0 -79 46 -131.5t114 -52.5q77 0 144 60t102 142t35 158z" />
    <glyph glyph-name="A" unicode="A" horiz-adv-x="1366" 
d="M1399 8l-201 -41l-240 484h-565l-237 -484l-189 41l713 1430h4zM877 635l-201 403l-199 -403h400z" />
    <glyph glyph-name="B" unicode="B" 
d="M965 391q0 -185 -116.5 -288t-332.5 -103h-407v1405h421q160 0 272.5 -107t112.5 -270q0 -91 -52.5 -168t-131.5 -127q104 -29 169 -126.5t65 -215.5zM715 1030q0 199 -223 199h-183v-426h178q112 0 170 68.5t58 158.5zM764 391q0 244 -275 244h-180v-459h185
q270 0 270 215z" />
    <glyph glyph-name="C" unicode="C" horiz-adv-x="1138" 
d="M1038 238l-37 -220q-54 -18 -85 -26.5t-75 -16.5t-85 -8q-188 0 -349 100t-254.5 269.5t-93.5 365.5q0 132 56 266t146.5 237t215 168t252.5 65q108 0 236 -35l43 -217q-102 67 -236 67q-105 0 -200.5 -45.5t-163.5 -120.5t-108 -173.5t-40 -202.5q0 -142 63 -269.5
t181 -208.5t262 -81q140 0 272 86z" />
    <glyph glyph-name="D" unicode="D" horiz-adv-x="1251" 
d="M1192 702q0 -139 -52.5 -266.5t-144.5 -224t-226.5 -154t-287.5 -57.5h-348v1405h350q156 0 290.5 -59t225 -157t142 -225t51.5 -262zM991 702q0 114 -45 213.5t-117.5 165t-162.5 103t-181 37.5h-151v-1037h153q88 0 176.5 36.5t162 101t119.5 164.5t46 216z" />
    <glyph glyph-name="E" unicode="E" 
d="M975 184l-57 -184h-781v1405h750l43 -184h-592v-398h473v-184h-473v-455h637z" />
    <glyph glyph-name="F" unicode="F" horiz-adv-x="909" 
d="M897 1221h-559v-398h430v-184h-430v-639l-201 -25v1430h725z" />
    <glyph glyph-name="G" unicode="G" horiz-adv-x="1478" 
d="M1319 172q-73 -90 -227.5 -147.5t-321.5 -57.5q-189 0 -354.5 102t-261 267.5t-95.5 347.5q0 149 54.5 286.5t149.5 241t232 165t293 61.5q145 0 284.5 -50t227.5 -143l-118 -137q-98 73 -187.5 109t-195.5 36q-150 0 -274.5 -78.5t-194.5 -208.5t-70 -280
q0 -124 65 -247t181.5 -205t249.5 -82q116 0 209.5 32.5t152.5 91.5v334h-420l70 185h551v-623z" />
    <glyph glyph-name="H" unicode="H" horiz-adv-x="1366" 
d="M1231 0l-201 -25v664h-692v-639l-201 -25v1430l201 33v-615h692v582l201 33v-1438z" />
    <glyph glyph-name="I" unicode="I" horiz-adv-x="454" 
d="M328 0l-201 -16v1421l201 33v-1438z" />
    <glyph glyph-name="J" unicode="J" horiz-adv-x="796" 
d="M662 420q0 -106 -29 -189t-72.5 -131.5t-101.5 -79.5t-109 -42t-102 -11q-69 0 -145.5 26t-114.5 64l100 176q31 -27 81 -46t105 -19q92 0 139.5 60.5t47.5 193.5v983l201 33v-1018z" />
    <glyph glyph-name="K" unicode="K" horiz-adv-x="1138" 
d="M1106 1376l-533 -655l519 -678l-203 -76l-547 750h-4v-717l-201 -33v1438l201 33v-711h4l576 735z" />
    <glyph glyph-name="L" unicode="L" horiz-adv-x="909" 
d="M934 184l-82 -184h-715v1405l201 33v-1254h596z" />
    <glyph glyph-name="M" unicode="M" horiz-adv-x="1593" 
d="M1569 0l-195 -25l-170 889h-4l-399 -880h-4l-410 880h-4l-166 -889l-192 25l284 1438h4l486 -1071l479 1071h4z" />
    <glyph glyph-name="N" unicode="N" horiz-adv-x="1366" 
d="M1237 -33h-4l-901 983v-950l-201 -25v1463h4l901 -983v917l201 33v-1438z" />
    <glyph glyph-name="O" unicode="O" horiz-adv-x="1593" 
d="M1534 702q0 -152 -58.5 -288.5t-157.5 -234t-235 -155t-286 -57.5q-200 0 -369.5 97t-269 266t-99.5 372q0 155 60 293t161 234.5t236 152.5t281 56q147 0 282.5 -56t235.5 -153t159.5 -234.5t59.5 -292.5zM1333 702q0 142 -70.5 269t-194.5 204.5t-271 77.5
q-104 0 -202 -43.5t-172 -116.5t-118.5 -176.5t-44.5 -216.5q0 -143 72 -269.5t197 -202.5t270 -76q107 0 206 45t170.5 119.5t114.5 176t43 209.5z" />
    <glyph glyph-name="P" unicode="P" 
d="M985 989q0 -124 -41.5 -213.5t-118 -140.5t-172 -74.5t-215.5 -23.5h-106v-537l-201 -25v1430h379q208 0 341.5 -114t133.5 -302zM784 985q0 70 -26.5 118.5t-72.5 73t-95 34.5t-107 10h-151v-500h164q142 0 215 63.5t73 200.5z" />
    <glyph glyph-name="Q" unicode="Q" horiz-adv-x="1593" 
d="M1577 -35l-158 -102l-207 231q-190 -127 -417 -127q-150 0 -286 57.5t-234.5 155.5t-157 234.5t-58.5 287.5q0 202 99 371.5t268.5 267t370.5 97.5q143 0 276.5 -54.5t235.5 -149.5t163.5 -234.5t61.5 -299.5q0 -135 -48 -261t-134 -222zM1333 702q0 109 -43 210.5
t-115 176t-171 119.5t-207 45q-106 0 -205.5 -44.5t-172 -119t-116 -176.5t-43.5 -211t43.5 -210.5t116 -176t172 -119t207.5 -44.5q144 0 284 88l-176 196l156 101l154 -170q116 155 116 335z" />
    <glyph glyph-name="R" unicode="R" 
d="M1036 25l-225 -58l-489 715h-5v-682l-200 -25v1430h344q203 0 333 -111t130 -313q0 -86 -24.5 -152t-70 -108t-98 -67.5t-119.5 -41.5zM723 979q0 118 -68.5 180t-199.5 62h-138v-494h140q105 0 185.5 67.5t80.5 184.5z" />
    <glyph glyph-name="S" unicode="S" 
d="M944 395q0 -183 -125 -305.5t-313 -122.5q-71 0 -133 17t-115.5 51t-95 70.5t-90.5 89.5l147 122q43 -66 112.5 -115.5t157.5 -49.5q124 0 189 64.5t65 176.5q0 54 -22 94t-59 66t-85.5 46t-101.5 38t-106.5 38t-102 50t-85.5 69.5t-59 101.5t-22 142q0 182 118 291
t314 109q113 0 218.5 -54.5t177.5 -150.5l-135 -135q-80 83 -139.5 119t-135.5 36q-95 0 -156 -58.5t-61 -154.5q0 -59 35.5 -102t92 -70t125 -51.5t137.5 -56.5t125.5 -75t92 -117t35.5 -173z" />
    <glyph glyph-name="T" unicode="T" horiz-adv-x="909" 
d="M883 1221h-328v-1221l-201 -25v1246h-364l63 184h830v-184z" />
    <glyph glyph-name="U" unicode="U" horiz-adv-x="1251" 
d="M1122 543q0 -218 -50.5 -343t-156.5 -179t-288 -54q-277 0 -387.5 129.5t-110.5 444.5v864l201 33v-998q0 -141 74.5 -214.5t205.5 -73.5q142 0 227 69t85 217v967l200 33v-895z" />
    <glyph glyph-name="V" unicode="V" 
d="M1065 1405l-559 -1438h-4l-543 1438l199 33l344 -975h4l358 975z" />
    <glyph glyph-name="W" unicode="W" horiz-adv-x="1705" 
d="M1745 1405l-600 -1438h-4l-285 686l-278 -686h-5l-612 1438l207 33l418 -1004l164 416l-236 555l188 33l152 -365l145 365l187 -33l-228 -555l177 -438l403 1026z" />
    <glyph glyph-name="X" unicode="X" horiz-adv-x="1138" 
d="M1161 39l-190 -72l-398 629l-419 -629l-179 88l482 703l-408 618l191 62l333 -523l347 523l190 -62l-426 -618z" />
    <glyph glyph-name="Y" unicode="Y" 
d="M1059 1378l-631 -1411l-197 43l246 531l-510 839l197 58l407 -684l295 684z" />
    <glyph glyph-name="Z" unicode="Z" horiz-adv-x="1138" 
d="M1112 184l-49 -184h-1034l745 1221h-715l41 184h975l-737 -1221h774z" />
    <glyph glyph-name="bracketleft" unicode="[" horiz-adv-x="681" 
d="M414 -272h-322v1677h322v-115h-185v-1448h185v-114z" />
    <glyph glyph-name="backslash" unicode="\" horiz-adv-x="569" 
d="M602 -33h-123l-514 1471h125z" />
    <glyph glyph-name="bracketright" unicode="]" horiz-adv-x="681" 
d="M590 -272h-322v114h185v1448h-185v115h322v-1677z" />
    <glyph glyph-name="asciicircum" unicode="^" horiz-adv-x="1228" 
d="M1114 557h-172l-330 672l-323 -672h-172l420 848h155z" />
    <glyph glyph-name="underscore" unicode="_" 
d="M1018 -256h-1018v152h1018v-152z" />
    <glyph glyph-name="quoteleft" unicode="&#x2018;" horiz-adv-x="454" 
d="M377 1360q-117 -169 -117 -215q0 -41 22 -63.5t78 -49.5l-122 -153q-162 104 -162 227q0 45 44.5 121t149.5 211z" />
    <glyph glyph-name="a" unicode="a" 
d="M920 0l-177 -33v144h-4q-39 -74 -113 -109t-202 -35q-166 0 -271.5 116t-105.5 284q0 114 61.5 200.5t153.5 128t197 41.5q172 0 264 -100v80q0 55 -14.5 89t-49 51t-77 22.5t-113.5 5.5q-166 0 -295 -60l53 203q198 41 281 41q223 0 317.5 -95t94.5 -294v-680zM723 367
q0 98 -70 147t-170 49q-104 0 -171.5 -51t-67.5 -143q0 -99 55 -158t170 -59q129 0 191.5 57.5t62.5 157.5z" />
    <glyph glyph-name="b" unicode="b" horiz-adv-x="1251" 
d="M1190 524q0 -127 -46.5 -234t-125 -176.5t-180 -108t-213.5 -38.5q-137 0 -256 63.5t-189.5 172t-70.5 235.5v977l196 33v-541q71 85 156 123.5t203 38.5q143 0 264 -73.5t191.5 -199t70.5 -272.5zM993 520q0 149 -100 257t-242 108q-156 0 -261 -107t-105 -262
q0 -148 104 -256t256 -108q148 0 248 106.5t100 261.5z" />
    <glyph glyph-name="c" unicode="c" 
d="M979 145q-177 -178 -387 -178q-143 0 -266 75t-194 200t-71 268q0 119 41.5 223.5t112 178t166 115.5t201.5 42q220 0 391 -145l-119 -136q-25 17 -45 31.5t-42.5 26.5t-46.5 21t-55.5 13.5t-70.5 4.5q-77 0 -142 -32.5t-106.5 -85t-64.5 -117.5t-23 -132
q0 -78 32 -148.5t81 -117t106 -73.5t109 -27q75 0 136.5 27t129.5 95z" />
    <glyph glyph-name="d" unicode="d" horiz-adv-x="1251" 
d="M1153 0l-184 -25v166q-153 -174 -377 -174q-144 0 -266.5 76.5t-193.5 206.5t-71 280q0 229 154 384t375 155q200 0 366 -149v495l197 33v-1448zM981 516q0 162 -108 265.5t-273 103.5q-97 0 -176.5 -52.5t-122.5 -136.5t-43 -180q0 -145 105 -254.5t245 -109.5
q157 0 265 97t108 267z" />
    <glyph glyph-name="e" unicode="e" horiz-adv-x="1138" 
d="M1053 784l-729 -465q105 -167 280 -167q91 0 179.5 43t209.5 137l39 -207q-52 -36 -88.5 -58t-90.5 -48t-112 -39t-120 -13q-164 0 -290 76t-193.5 207t-67.5 295q0 141 72 262.5t191.5 191.5t256.5 70q157 0 266.5 -71t196.5 -214zM782 817q-24 30 -69.5 49t-102.5 19
q-83 0 -150.5 -29t-110 -78t-65 -111.5t-22.5 -131.5q0 -12 4 -46z" />
    <glyph glyph-name="f" unicode="f" horiz-adv-x="569" 
d="M633 1262q-61 12 -96 12q-121 0 -169.5 -57.5t-48.5 -180.5h263v-174h-263v-862l-196 -33v895h-135l57 174h78q0 207 96 303q109 109 352 109z" />
    <glyph glyph-name="g" unicode="g" 
d="M971 33q0 -99 -41 -179.5t-108.5 -129.5t-148.5 -75t-167 -26q-153 0 -262 62t-193 184l146 115q33 -48 57.5 -77t61 -57t83 -40.5t107.5 -12.5q106 0 187 62.5t81 167.5q0 126 -79.5 195t-192.5 69q-74 0 -126.5 -16.5t-129.5 -59.5l37 145q-117 40 -171.5 130
t-54.5 208q0 82 29 149t78 110t104.5 69t116.5 37q22 4 87.5 8t126.5 6.5t67 3.5q77 10 138 26t165 54l-45 -192l-123 -31q131 -81 131 -258q0 -94 -56.5 -176.5t-158.5 -116.5v-4q125 -43 189.5 -135t64.5 -215zM735 688q0 98 -64.5 156.5t-174.5 58.5q-105 0 -173.5 -58.5
t-68.5 -158.5q0 -102 63.5 -165.5t178.5 -63.5q104 0 171.5 65.5t67.5 165.5z" />
    <glyph glyph-name="h" unicode="h" horiz-adv-x="1138" 
d="M1026 0l-197 -33v721q0 207 -231 207q-127 0 -209 -80.5t-82 -236.5v-578l-196 -33v1448l196 33v-510h12q37 58 118 94.5t184 36.5q79 0 149 -19.5t128.5 -60t93 -110.5t34.5 -162v-717z" />
    <glyph glyph-name="i" unicode="i" horiz-adv-x="454" 
d="M356 1309l-127 -154l-131 154l127 155zM326 0l-197 -33v1069l197 33v-1069z" />
    <glyph glyph-name="j" unicode="j" horiz-adv-x="454" 
d="M356 1315l-123 -160l-135 160l125 149zM326 -51q0 -75 -25.5 -134.5t-63.5 -94.5t-88 -58t-94 -31t-86 -8q-14 0 -67 6l-70 178h68q229 0 229 158v1071l197 33v-1120z" />
    <glyph glyph-name="k" unicode="k" 
d="M1024 76l-172 -109l-530 559v-526l-197 -33v1448l197 33v-885l477 518l170 -96l-412 -432z" />
    <glyph glyph-name="l" unicode="l" horiz-adv-x="454" 
d="M326 0l-197 -25v1440l197 33v-1448z" />
    <glyph glyph-name="m" unicode="m" horiz-adv-x="1593" 
d="M1485 0l-197 -33v735q0 193 -166 193q-35 0 -71.5 -10.5t-73 -33t-59.5 -66t-23 -101.5v-684l-197 -33v735q0 193 -166 193q-58 0 -108 -22t-84.5 -71.5t-34.5 -117.5v-684l-196 -33v1069l188 33v-141h4q34 67 106.5 104t159.5 37q203 0 267 -151q30 62 115.5 106.5
t191.5 44.5q51 0 97.5 -9.5t92 -34t79 -61.5t54.5 -95.5t21 -133.5v-735z" />
    <glyph glyph-name="n" unicode="n" horiz-adv-x="1138" 
d="M1026 0l-197 -33v719q0 209 -233 209q-131 0 -210 -85t-79 -230v-580l-196 -33v1069l196 33v-154h4q43 75 124.5 114.5t187.5 39.5q54 0 106 -9.5t107 -35t96 -64.5t67.5 -104.5t26.5 -148.5v-707z" />
    <glyph glyph-name="o" unicode="o" horiz-adv-x="1251" 
d="M1190 516q0 -150 -76 -276.5t-205.5 -199.5t-281.5 -73q-118 0 -223.5 44t-180.5 118.5t-118.5 176t-43.5 212.5q0 153 77 280.5t206 199t281 71.5q153 0 282.5 -72.5t206 -200.5t76.5 -280zM993 512q0 158 -107.5 265.5t-260.5 107.5q-149 0 -258 -106.5t-109 -260.5
q0 -153 107.5 -259.5t259.5 -106.5q159 0 263.5 110t104.5 250z" />
    <glyph glyph-name="p" unicode="p" horiz-adv-x="1251" 
d="M1190 514q0 -158 -72 -284t-193 -194.5t-266 -68.5q-105 0 -206 42t-158 108v-469l-197 -25v1413l185 33v-174q152 174 379 174q100 0 195.5 -41.5t169 -113t118.5 -176.5t45 -224zM993 516q0 164 -106.5 266.5t-247.5 102.5q-158 0 -263.5 -106.5t-105.5 -260.5
q0 -147 104.5 -256.5t248.5 -109.5q100 0 183 41.5t135 126t52 196.5z" />
    <glyph glyph-name="q" unicode="q" horiz-adv-x="1251" 
d="M1159 -352l-196 -25v494q-72 -67 -169 -108.5t-198 -41.5q-99 0 -193.5 36.5t-171 103.5t-123.5 173.5t-47 235.5q0 155 77.5 283.5t200 199t257.5 70.5q227 0 377 -174v141l186 33v-1421zM981 516q0 89 -33 161.5t-87.5 116.5t-119.5 67.5t-133 23.5q-81 0 -148.5 -32.5
t-110.5 -85.5t-67 -118t-24 -133q0 -142 104 -253t248 -111q160 0 265.5 99t105.5 265z" />
    <glyph glyph-name="r" unicode="r" horiz-adv-x="681" 
d="M717 1073l-82 -196q-71 2 -127.5 -19.5t-93.5 -59t-61.5 -89t-35 -105t-10.5 -110.5v-494l-196 -33v1069l184 33v-223h4q44 101 123.5 164t193.5 63h101z" />
    <glyph glyph-name="s" unicode="s" horiz-adv-x="796" 
d="M756 301q0 -80 -31.5 -145t-83 -105.5t-114 -62t-128.5 -21.5q-116 0 -204 39.5t-162 134.5l135 115q54 -62 102 -88.5t115 -26.5q70 0 122 34.5t52 94.5q0 49 -22 83t-58 51.5t-81.5 32.5t-93.5 25.5t-93.5 31t-81.5 48t-58 78t-22 119.5q0 143 94.5 236.5t241.5 93.5
q112 0 188 -36.5t148 -108.5l-117 -129q-56 57 -98 78.5t-103 21.5q-74 0 -115.5 -31.5t-41.5 -95.5q0 -37 17.5 -63.5t47 -42.5t67.5 -28t80.5 -23t85 -24.5t80.5 -36.5t67.5 -54t47 -80.5t17.5 -114.5z" />
    <glyph glyph-name="t" unicode="t" horiz-adv-x="681" 
d="M686 154l-35 -179q-71 -8 -147 -8q-150 0 -240 90t-90 238v567h-162l70 174h92v254l197 47v-301h276v-174h-276v-540q0 -101 35.5 -141t144.5 -40q63 0 135 13z" />
    <glyph glyph-name="u" unicode="u" horiz-adv-x="1138" 
d="M1026 0l-192 -33v154h-5q-39 -66 -119.5 -110t-193.5 -44q-80 0 -149.5 19.5t-128.5 59.5t-93 110t-34 163v717l196 33v-723q0 -104 61 -154.5t169 -50.5q51 0 99 15.5t93 49t72.5 98.5t27.5 153v579l197 33v-1069z" />
    <glyph glyph-name="v" unicode="v" horiz-adv-x="909" 
d="M938 1036l-481 -1069h-4l-482 1069l185 33l299 -704l297 704z" />
    <glyph glyph-name="w" unicode="w" horiz-adv-x="1593" 
d="M1612 1036l-457 -1069h-4l-358 711l-365 -711h-4l-444 1069l190 33l272 -672l349 672h4l348 -672l278 672z" />
    <glyph glyph-name="x" unicode="x" horiz-adv-x="909" 
d="M924 63l-172 -88l-301 437l-293 -437l-170 80l346 500l-318 442l164 72l269 -379l249 379l166 -63l-311 -449z" />
    <glyph glyph-name="y" unicode="y" horiz-adv-x="909" 
d="M940 1036l-657 -1372l-177 49l265 518l-404 805l172 33l326 -637l303 637z" />
    <glyph glyph-name="z" unicode="z" 
d="M969 1036l-627 -862h623l-45 -174h-900l617 862h-547l39 174h840z" />
    <glyph glyph-name="braceleft" unicode="{" horiz-adv-x="681" 
d="M492 -305h-109q-100 0 -164.5 70.5t-64.5 162.5v357q0 101 -49.5 166t-120.5 65v115q60 0 115 57t55 162v350q0 60 22.5 112t76.5 89t132 37h107v-115h-105q-96 0 -96 -160v-354q0 -88 -50 -154.5t-128 -83.5v-6q82 -19 130 -87.5t48 -160.5v-360q0 -75 22 -111t72 -36
h107v-115z" />
    <glyph glyph-name="bar" unicode="|" horiz-adv-x="454" 
d="M311 0h-168v1405h168v-1405z" />
    <glyph glyph-name="braceright" unicode="}" horiz-adv-x="681" 
d="M698 516q-71 0 -120.5 -65t-49.5 -166v-357q0 -92 -64.5 -162.5t-164.5 -70.5h-109v115h107q50 0 72 36t22 111v360q0 92 48 160.5t130 87.5v6q-78 17 -128 83.5t-50 154.5v354q0 160 -96 160h-105v115h107q78 0 132 -37t76.5 -89t22.5 -112v-350q0 -105 55 -162t115 -57
v-115z" />
    <glyph glyph-name="asciitilde" unicode="~" horiz-adv-x="1228" 
d="M1087 547q-65 -92 -120.5 -134t-135.5 -42q-45 0 -90 14.5t-83.5 34.5t-78 40.5t-89 35t-101.5 14.5q-108 0 -174 -148l-74 127q93 177 252 177q68 0 156.5 -35t166 -70t118.5 -35q51 0 88 34t92 114z" />
    <glyph glyph-name="exclamdown" unicode="&#xa1;" horiz-adv-x="569" 
d="M403 903l-133 -176l-133 176l133 176zM358 -344l-208 -33l30 963l160 32z" />
    <glyph glyph-name="cent" unicode="&#xa2;" horiz-adv-x="1138" 
d="M842 487q-26 -33 -83.5 -61t-123.5 -37v-328l-135 -20v350q-156 30 -238 136.5t-82 258.5q0 74 31 142t78.5 114.5t103 76t107.5 34.5v266l135 29v-293q55 0 111.5 -25t91.5 -59l-97 -117q-46 30 -80.5 43t-76.5 13q-100 0 -173 -63t-73 -165q0 -110 65.5 -176.5
t171.5 -66.5q82 0 168 63z" />
    <glyph glyph-name="sterling" unicode="&#xa3;" horiz-adv-x="1138" 
d="M1059 475q0 -158 -53 -262q-107 -213 -416 -213h-524v184h165v473h-155l35 174h120v205q0 167 102 284.5t269 117.5q150 0 249.5 -85t125.5 -237l-182 -49q-42 186 -191 186q-85 0 -136.5 -55.5t-51.5 -155.5v-211h262v-174h-262v-473h211q161 0 219 117q37 75 37 225z
" />
    <glyph glyph-name="yen" unicode="&#xa5;" horiz-adv-x="1138" 
d="M1094 774h-279l-65 -133h286v-174h-305v-467l-201 -16v483h-366v174h307l-74 133h-291v174h181l-258 432l176 58l407 -684l295 684l172 -60l-178 -430h193v-174z" />
    <glyph glyph-name="florin" unicode="&#x192;" horiz-adv-x="1138" 
d="M1098 1409l-25 -166q-75 31 -119 31q-38 0 -69.5 -14.5t-52.5 -39t-38.5 -57t-27.5 -68.5t-18.5 -72.5t-12 -70t-8.5 -61.5h268v-174h-301q-14 -104 -56 -346t-79 -381q-56 -205 -135 -286t-246 -81q-76 0 -172 37l25 162q78 -35 131 -35q115 0 168 117q28 62 59 231
q1 7 2 10l101 572h-246v174h282q9 58 17 100t24.5 103.5t35.5 105t49.5 91.5t66.5 78t88 49.5t113 19.5q83 0 176 -29z" />
    <glyph glyph-name="section" unicode="&#xa7;" 
d="M948 397q0 -85 -61 -151.5t-176 -83.5q116 -122 116 -266q0 -131 -91.5 -207t-235.5 -76q-105 0 -193.5 54.5t-150.5 142.5l149 112q85 -143 197 -143q53 0 89 35t36 90q0 56 -23.5 93.5t-77.5 90.5q-29 29 -92.5 90.5t-103.5 100.5t-94 98t-85 102.5t-54 92t-23 87.5
q0 109 62 181t177 86q-63 65 -85.5 123.5t-22.5 132.5q0 78 44.5 138t110.5 89t140 29q107 0 192 -38.5t156 -142.5l-146 -114q-40 72 -80.5 101.5t-99.5 29.5q-53 0 -84.5 -28.5t-31.5 -78.5q0 -83 94 -174q18 -18 64.5 -60t92.5 -87q62 -61 92 -92t76 -84.5t67.5 -90.5
t38.5 -86t17 -96zM748 387q0 23 -10 49.5t-27.5 53t-40.5 55.5t-49 56.5t-53.5 56t-53.5 53.5q-37 37 -77.5 57t-69.5 20q-33 0 -63 -28t-30 -62q0 -83 205 -288q60 -60 100 -84.5t78 -24.5q39 0 65 23.5t26 62.5z" />
    <glyph glyph-name="currency" unicode="&#xa4;" horiz-adv-x="1138" 
d="M1087 1135l-112 -113q100 -117 100 -301q0 -182 -100 -309l110 -115l-96 -96l-115 118q-48 -48 -128.5 -79t-172.5 -31q-190 0 -313 108l-113 -118l-98 98l113 119q-103 124 -103 299q0 193 107 303l-117 119l101 100l114 -115q60 51 143 77t164 26q179 0 295 -101
l117 115zM907 719q0 141 -96.5 245.5t-237.5 104.5q-146 0 -246 -104.5t-100 -249.5q0 -144 100.5 -247t243.5 -103q140 0 238 104.5t98 249.5z" />
    <glyph glyph-name="quotesingle" unicode="'" horiz-adv-x="454" 
d="M311 850h-168v555h168v-555z" />
    <glyph glyph-name="quotedblleft" unicode="&#x201c;" horiz-adv-x="796" 
d="M694 1073l-125 -160q-82 59 -115.5 113.5t-33.5 114.5q0 34 12.5 70.5t33 71.5t47.5 75t56 80l115 -82q-84 -123 -84 -176q0 -58 94 -107zM379 1073l-125 -160q-82 59 -116 113.5t-34 114.5q0 34 12.5 70.5t33.5 71.5t48 75t56 80l115 -82q-84 -121 -84 -176
q0 -59 94 -107z" />
    <glyph glyph-name="guillemotleft" unicode="&#xab;" horiz-adv-x="909" 
d="M844 221h-205l-205 297l205 297h205l-205 -297zM475 221h-205l-204 297l204 297h205l-205 -297z" />
    <glyph glyph-name="guilsinglleft" unicode="&#x2039;" horiz-adv-x="569" 
d="M489 221h-204l-205 297l205 297h204l-204 -297z" />
    <glyph glyph-name="guilsinglright" unicode="&#x203a;" horiz-adv-x="569" 
d="M489 518l-204 -297h-205l205 297l-205 297h205z" />
    <glyph glyph-name="endash" unicode="&#x2013;" 
d="M1024 442h-1024v152h1024v-152z" />
    <glyph glyph-name="dagger" unicode="&#x2020;" 
d="M922 805l-377 84q23 -182 86 -375q-64 -332 -78 -876h-82q-14 560 -78 876q65 201 86 375l-377 -84v223l377 -84l-80 461h226l-80 -461l377 84v-223z" />
    <glyph glyph-name="daggerdbl" unicode="&#x2021;" 
d="M922 -4l-377 86l90 -444h-236l93 444l-390 -94v221l390 -74l-93 387v4l93 377l-390 -84v228l390 -89l-91 447h232l-88 -447l377 82v-211l-377 74l88 -377v-4l-88 -387l377 90v-229z" />
    <glyph glyph-name="periodcentered" unicode="&#xb7;" horiz-adv-x="569" 
d="M408 518q0 -50 -36.5 -86.5t-86.5 -36.5q-51 0 -87 36t-36 85q0 52 36 88.5t87 36.5q50 0 86.5 -36.5t36.5 -86.5z" />
    <glyph glyph-name="paragraph" unicode="&#xb6;" horiz-adv-x="1228" 
d="M1069 -391h-168v1667h-235v-1667h-168v1050q-199 0 -319 105t-120 260q0 198 127.5 289.5t354.5 91.5h528v-1796z" />
    <glyph glyph-name="bullet" unicode="&#x2022;" 
d="M862 705q0 -148 -101.5 -251.5t-246.5 -103.5q-150 0 -252 103t-102 254q0 143 102.5 244.5t249.5 101.5q143 0 246.5 -101.5t103.5 -246.5z" />
    <glyph glyph-name="quotesinglbase" unicode="&#x201a;" horiz-adv-x="454" 
d="M365 -2q0 -34 -12.5 -70.5t-33.5 -71.5t-48 -75t-56 -80l-115 82q84 121 84 176q0 59 -94 107l125 159q83 -59 116.5 -113t33.5 -114z" />
    <glyph glyph-name="quotedblbase" unicode="&#x201e;" horiz-adv-x="796" 
d="M692 -2q0 -27 -8 -56t-22 -57t-33 -58.5t-40.5 -61t-45.5 -64.5l-115 82q84 121 84 176q0 58 -94 107l125 159q82 -59 115.5 -113t33.5 -114zM377 -2q0 -34 -12.5 -70.5t-33.5 -71.5t-48 -75t-56 -80l-114 82q84 123 84 176q0 58 -95 107l125 159q83 -59 116.5 -113
t33.5 -114z" />
    <glyph glyph-name="quotedblright" unicode="&#x201d;" horiz-adv-x="796" 
d="M692 1210q0 -27 -8 -56t-22 -57t-33 -58.5t-40.5 -61t-45.5 -64.5l-115 82q84 121 84 176q0 58 -94 107l125 160q82 -59 115.5 -113.5t33.5 -114.5zM377 1210q0 -34 -12.5 -70.5t-33.5 -71.5t-48 -75t-56 -80l-114 82q84 123 84 176q0 58 -95 107l125 160
q82 -59 116 -113.5t34 -114.5z" />
    <glyph glyph-name="guillemotright" unicode="&#xbb;" horiz-adv-x="909" 
d="M844 518l-205 -297h-205l205 297l-205 297h205zM475 518l-205 -297h-204l204 297l-204 297h204z" />
    <glyph glyph-name="ellipsis" unicode="&#x2026;" horiz-adv-x="2048" 
d="M1839 158l-133 -176l-133 176l133 176zM1157 158l-133 -176l-133 176l133 176zM475 158l-133 -176l-133 176l133 176z" />
    <glyph glyph-name="perthousand" unicode="&#x2030;" horiz-adv-x="2048" 
d="M2048 322q0 -135 -93.5 -228.5t-228.5 -93.5q-137 0 -230 94.5t-93 229.5q0 133 94 228t229 95q131 0 226.5 -94t95.5 -231zM1298 322q0 -135 -93 -228.5t-228 -93.5q-137 0 -230.5 94.5t-93.5 229.5q0 133 94 228t230 95q131 0 226 -94t95 -231zM1116 1438l-799 -1471
h-116l657 1178l-4 4q-18 -18 -47 -30.5t-55 -12.5q-65 0 -97 41l-4 -4q0 -4 4 -36t4 -50q0 -117 -98 -209t-225 -92q-134 0 -229 93.5t-95 227.5q0 135 94.5 231.5t229.5 96.5q53 0 103.5 -18t89.5 -43.5t74 -51t71 -43.5t67 -18q151 0 254 207h121zM1913 324
q0 75 -55 131.5t-132 56.5q-74 0 -131 -55t-57 -133q0 -77 54 -133t134 -56q77 0 132 55t55 134zM524 1083q0 77 -56 132t-134 55q-74 0 -130.5 -53.5t-56.5 -133.5q0 -77 54 -134.5t135 -57.5q75 0 131.5 57.5t56.5 134.5zM1163 324q0 75 -54.5 131.5t-131.5 56.5
q-74 0 -131.5 -55t-57.5 -133q0 -77 54.5 -133t134.5 -56q76 0 131 55t55 134z" />
    <glyph glyph-name="questiondown" unicode="&#xbf;" 
d="M657 903l-133 -176l-133 176l133 176zM899 -61q-12 -131 -123.5 -223.5t-255.5 -92.5q-112 0 -197 54.5t-128 143t-43 195.5q0 64 16 119t41.5 93.5t56 71.5t61 59.5t56 51.5t41.5 53.5t16 59.5v82l174 25v-123q0 -41 -15.5 -78.5t-40 -68t-54 -60.5t-59 -61.5t-54 -65
t-40 -77.5t-15.5 -93q0 -100 52.5 -153.5t137.5 -53.5q87 0 140 61t59 152z" />
    <glyph glyph-name="grave" unicode="`" horiz-adv-x="454" 
d="M381 1190h-168l-291 295h275z" />
    <glyph glyph-name="acute" unicode="&#xb4;" horiz-adv-x="454" 
d="M532 1485l-294 -295h-168l184 295h278z" />
    <glyph glyph-name="circumflex" unicode="&#x2c6;" horiz-adv-x="454" 
d="M561 1190h-188l-146 182l-143 -182h-188l219 295h227z" />
    <glyph glyph-name="tilde" unicode="&#x2dc;" horiz-adv-x="454" 
d="M588 1456q-18 -119 -77.5 -178t-150.5 -59q-45 0 -146.5 37.5t-145.5 37.5q-71 0 -86 -90h-117q9 98 70 169t143 71q65 0 162 -39t139 -39q73 0 92 90h117z" />
    <glyph glyph-name="macron" unicode="&#xaf;" horiz-adv-x="454" 
d="M561 1260h-665v131h665v-131z" />
    <glyph glyph-name="dieresis" unicode="&#xa8;" horiz-adv-x="454" 
d="M543 1327l-125 -149l-129 149l129 150zM166 1327l-127 -149l-127 149l127 150z" />
    <glyph glyph-name="cedilla" unicode="&#xb8;" horiz-adv-x="454" 
d="M461 -272q0 -88 -71.5 -139.5t-190.5 -51.5q-77 0 -197 53l39 82q75 -32 133 -32q123 0 123 81q0 72 -98 72q-41 0 -76 -12l-45 39l135 180h100l-90 -119l4 -4q34 8 52 8q73 0 127.5 -41.5t54.5 -115.5z" />
    <glyph glyph-name="emdash" unicode="&#x2014;" horiz-adv-x="2048" 
d="M2048 442h-2048v152h2048v-152z" />
    <glyph glyph-name="AE" unicode="&#xc6;" horiz-adv-x="1933" 
d="M1864 184l-58 -184h-837v623h-414l-451 -656l-190 64l963 1374h882l43 -184h-633v-398h517v-184h-517v-455h695zM969 807v428h-4l-285 -428h289z" />
    <glyph glyph-name="ordfeminine" unicode="&#xaa;" horiz-adv-x="614" 
d="M600 797l-115 -21v86h-4q-50 -86 -202 -86q-115 0 -184.5 70.5t-69.5 173.5q0 97 80.5 155t191.5 58q116 0 166 -53v49q0 61 -36.5 81.5t-100.5 20.5q-124 0 -211 -39l30 121q140 25 183 25q137 0 204.5 -54.5t67.5 -177.5v-409zM463 1018q0 48 -41.5 78t-108.5 30
q-65 0 -108 -30t-43 -76q0 -65 38.5 -101t102.5 -36q70 0 115 33t45 102z" />
    <glyph glyph-name="Oslash" unicode="&#xd8;" horiz-adv-x="1593" 
d="M1534 702q0 -152 -58.5 -288.5t-157.5 -234t-235 -155t-286 -57.5q-230 0 -416 127l-160 -196l-110 71l170 207q-106 103 -164 238t-58 288q0 155 60 292.5t160 234t235 153t281 56.5q233 0 419 -127l148 178l108 -68l-157 -192q104 -101 162.5 -236.5t58.5 -290.5z
M1333 702q0 213 -147 373l-682 -829q133 -94 295 -94q107 0 206 45t170.5 119.5t114.5 176t43 209.5zM1090 1159q-132 94 -293 94q-104 0 -202 -43.5t-172 -116.5t-118.5 -176.5t-44.5 -216.5q0 -208 148 -370z" />
    <glyph glyph-name="OE" unicode="&#x152;" horiz-adv-x="2048" 
d="M2030 184l-54 -184h-747v195q-99 -114 -230.5 -171t-279.5 -57q-211 0 -372 92.5t-245 251.5t-84 359q0 118 32 231.5t94 210t145 170t191 115t227 41.5q148 0 285 -65.5t227 -188.5h4v221h706l43 -184h-549v-398h443v-184h-443v-455h607zM1221 672q0 113 -35.5 217.5
t-100 185.5t-162.5 129.5t-214 48.5q-111 0 -205.5 -51.5t-155.5 -135t-95 -186.5t-34 -208q0 -130 68.5 -250.5t185.5 -195t248 -74.5q97 0 189.5 44.5t160 116.5t109 167t41.5 192z" />
    <glyph glyph-name="ordmasculine" unicode="&#xba;" horiz-adv-x="751" 
d="M739 1108q0 -137 -107.5 -234.5t-254.5 -97.5q-94 0 -177 42.5t-134.5 120t-51.5 169.5q0 137 108.5 233.5t252.5 96.5q149 0 256.5 -97.5t107.5 -232.5zM602 1108q0 82 -67 142.5t-158 60.5t-158 -61.5t-67 -141.5q0 -81 67 -143t158 -62q89 0 157 62.5t68 142.5z" />
    <glyph glyph-name="ae" unicode="&#xe6;" horiz-adv-x="1705" 
d="M1696 778l-758 -448q31 -86 117 -132t196 -46q93 0 193 48t186 124l43 -213q-106 -75 -209.5 -109.5t-222.5 -34.5q-288 0 -444 201q-62 -100 -144.5 -150.5t-199.5 -50.5q-191 0 -301.5 107.5t-110.5 287.5q0 86 34.5 157t91 115.5t124 68.5t137.5 24q87 0 148.5 -20
t111.5 -72v67q0 104 -56.5 143.5t-170.5 39.5q-142 0 -291 -68l51 207q110 45 266 45q124 0 209.5 -37.5t137.5 -122.5q185 160 405 160q81 0 161 -28t160 -95.5t136 -167.5zM1413 811q-74 74 -192 74q-78 0 -143 -30.5t-106 -80.5t-64 -111.5t-23 -125.5v-37zM690 358
q0 94 -70.5 144.5t-166.5 50.5q-91 0 -153 -52t-62 -136q0 -97 57 -155t160 -58q95 0 165 51.5t70 154.5z" />
    <glyph glyph-name="oslash" unicode="&#xf8;" horiz-adv-x="1251" 
d="M1190 516q0 -150 -76 -276.5t-205.5 -199.5t-281.5 -73q-147 0 -271 70l-135 -197l-108 54l145 210q-93 75 -145 183t-52 231q0 153 77 280.5t206 199t281 71.5q144 0 256 -59l133 194l108 -53l-141 -205q98 -78 153.5 -188t55.5 -242zM993 520q0 158 -121 268l-409 -598
q78 -38 162 -38q159 0 263.5 110t104.5 258zM772 854q-70 31 -147 31q-149 0 -258 -106.5t-109 -260.5q0 -148 107 -258z" />
    <glyph glyph-name="oe" unicode="&#x153;" horiz-adv-x="2048" 
d="M1989 780l-756 -452q19 -74 106.5 -125t176.5 -51q112 0 220.5 47t186.5 133l49 -221q-193 -144 -463 -144q-137 0 -250 59t-188 171q-89 -116 -203 -173t-268 -57q-161 0 -286 74.5t-191 199.5t-66 279q0 151 77 278t205.5 199t276.5 72q286 0 457 -231q176 231 428 231
q308 0 488 -289zM1708 805q-55 80 -192 80q-83 0 -152 -36t-110 -90t-63 -111t-22 -105v-60zM973 522q0 148 -102 255.5t-253 107.5q-158 0 -261 -104t-103 -261q0 -96 44 -180t124.5 -136t179.5 -52q155 0 263 105t108 265z" />
    <glyph glyph-name="germandbls" unicode="&#xdf;" horiz-adv-x="1251" 
d="M1130 403q0 -203 -126 -319.5t-318 -116.5q-102 0 -188 44.5t-138 131.5h-4v-215l-186 -75v858h-166l55 174h111v180q0 106 63.5 194.5t167.5 138.5t222 50q81 0 155 -27t132 -76.5t93 -126.5t35 -169q0 -85 -45 -160t-129 -121q139 -51 202.5 -147.5t63.5 -217.5z
M934 399q0 40 -6.5 72.5t-16.5 57.5t-29 44.5t-36 33t-46 23.5t-51.5 15.5t-60 10t-63 6.5t-68.5 4v174q115 0 180 30q105 51 105 179q0 108 -61.5 161.5t-159.5 53.5q-50 0 -88.5 -9.5t-65 -25t-45.5 -42t-29.5 -52.5t-16.5 -65t-7.5 -71.5t-1.5 -78.5v-564l73 21
q10 -104 77.5 -164.5t172.5 -60.5q112 0 178 66t66 181z" />
    <glyph glyph-name="Eth" unicode="&#xd0;" horiz-adv-x="1251" 
d="M1192 702q0 -139 -52.5 -266.5t-144.5 -224t-226.5 -154t-287.5 -57.5h-348v639h-133v184h133v582h350q156 0 290.5 -59t225 -157t142 -225t51.5 -262zM991 702q0 114 -45 213.5t-117.5 165t-162.5 103t-181 37.5h-151v-398h342v-184h-342v-455h153q88 0 176.5 36.5
t162 101t119.5 164.5t46 216z" />
    <glyph glyph-name="eth" unicode="&#xf0;" horiz-adv-x="1251" 
d="M1190 518q0 -153 -77.5 -280.5t-207 -199t-280.5 -71.5q-154 0 -283.5 73t-205 200.5t-75.5 279.5q0 150 75.5 276.5t205.5 199.5t285 73q26 0 47 -4h6q-89 86 -154 137l-268 -80l-94 111l237 70q-64 51 -153 110l180 35l135 -96l260 75l92 -108l-223 -68
q73 -58 134 -111.5t131.5 -130.5t119 -150.5t81 -163.5t32.5 -177zM993 518q0 153 -108.5 260t-259.5 107q-153 0 -260 -108t-107 -259q0 -152 107.5 -259t259.5 -107q153 0 260.5 108t107.5 258z" />
    <glyph glyph-name="Scaron" unicode="&#x160;" 
d="M885 1782l-219 -295h-227l-219 295h188l143 -185l146 185h188zM944 395q0 -183 -125 -305.5t-313 -122.5q-71 0 -133 17t-115.5 51t-95 70.5t-90.5 89.5l147 122q43 -66 112.5 -115.5t157.5 -49.5q124 0 189 64.5t65 176.5q0 54 -22 94t-59 66t-85.5 46t-101.5 38
t-106.5 38t-102 50t-85.5 69.5t-59 101.5t-22 142q0 182 118 291t314 109q113 0 218.5 -54.5t177.5 -150.5l-135 -135q-80 83 -139.5 119t-135.5 36q-95 0 -156 -58.5t-61 -154.5q0 -59 35.5 -102t92 -70t125 -51.5t137.5 -56.5t125.5 -75t92 -117t35.5 -173z" />
    <glyph glyph-name="scaron" unicode="&#x161;" horiz-adv-x="796" 
d="M733 1485l-219 -295h-227l-219 295h188l143 -185l146 185h188zM756 301q0 -80 -31.5 -145t-83 -105.5t-114 -62t-128.5 -21.5q-116 0 -204 39.5t-162 134.5l135 115q54 -62 102 -88.5t115 -26.5q70 0 122 34.5t52 94.5q0 49 -22 83t-58 51.5t-81.5 32.5t-93.5 25.5
t-93.5 31t-81.5 48t-58 78t-22 119.5q0 143 94.5 236.5t241.5 93.5q112 0 188 -36.5t148 -108.5l-117 -129q-56 57 -98 78.5t-103 21.5q-74 0 -115.5 -31.5t-41.5 -95.5q0 -37 17.5 -63.5t47 -42.5t67.5 -28t80.5 -23t85 -24.5t80.5 -36.5t67.5 -54t47 -80.5t17.5 -114.5z
" />
    <glyph glyph-name="Yacute" unicode="&#xdd;" 
d="M1059 1378l-631 -1411l-197 43l246 531l-510 839l197 58l407 -684l295 684zM856 1782l-294 -295h-168l184 295h278z" />
    <glyph glyph-name="yacute" unicode="&#xfd;" horiz-adv-x="909" 
d="M940 1036l-657 -1372l-177 49l265 518l-404 805l172 33l326 -637l303 637zM759 1485l-294 -295h-168l184 295h278z" />
    <glyph glyph-name="Thorn" unicode="&#xde;" 
d="M991 764q0 -124 -40.5 -213.5t-115.5 -141t-169 -75t-213 -23.5h-121v-311l-201 -16v1421l201 33v-258h182q218 0 347.5 -115t129.5 -301zM791 764q0 62 -23.5 108t-65.5 72t-94 38.5t-114 12.5h-162v-499h166q145 0 219 62.5t74 205.5z" />
    <glyph glyph-name="thorn" unicode="&#xfe;" horiz-adv-x="1251" 
d="M1190 516q0 -118 -42.5 -221.5t-114.5 -174.5t-169.5 -112t-204.5 -41q-93 0 -190.5 40t-173.5 110v-469l-197 -25v1792l197 33v-553h4q53 75 144.5 124.5t213.5 49.5q145 0 268.5 -77t194 -204t70.5 -272zM993 516q0 166 -110.5 267.5t-268.5 101.5
q-147 0 -245.5 -110.5t-98.5 -258.5q0 -94 47 -178t129.5 -135t178.5 -51q156 0 262 99t106 265z" />
    <glyph glyph-name="Zcaron" unicode="&#x17d;" horiz-adv-x="1138" 
d="M942 1782l-219 -295h-227l-219 295h188l143 -185l146 185h188zM1112 184l-49 -184h-1034l745 1221h-715l41 184h975l-737 -1221h774z" />
    <glyph glyph-name="zcaron" unicode="&#x17e;" 
d="M846 1485l-219 -295h-227l-219 295h188l143 -185l146 185h188zM969 1036l-627 -862h623l-45 -174h-900l617 862h-547l39 174h840z" />
    <glyph glyph-name="onehalf" unicode="&#xbd;" horiz-adv-x="1708" 
d="M1636 111l-22 -125h-594l342 364q127 136 127 236q0 65 -48.5 101t-125.5 36q-79 0 -122.5 -48.5t-43.5 -119.5q0 -58 41 -107t100 -61l-76 -82q-100 32 -151 107.5t-51 171.5q0 114 89.5 189t221.5 75q129 0 216 -73t87 -187q0 -51 -23 -107t-52.5 -99.5t-82.5 -99.5
t-88 -88t-94 -83h350zM1335 1438l-911 -1471h-117l910 1471h118zM496 575l-138 -10v664l-178 -109l-47 78l363 240v-863z" />
    <glyph glyph-name="onequarter" unicode="&#xbc;" horiz-adv-x="1708" 
d="M1616 301l-21 -117h-131v-204l-114 -11v215h-410l524 658v-541h152zM1430 1438l-912 -1471h-117l910 1471h119zM496 575l-138 -10v664l-178 -109l-47 78l363 240v-863zM1350 299v250h-7l-176 -250h183z" />
    <glyph glyph-name="onesuperior" unicode="&#xb9;" horiz-adv-x="681" 
d="M457 575l-138 -10v664l-178 -109l-47 78l363 240v-863z" />
    <glyph glyph-name="threequarters" unicode="&#xbe;" horiz-adv-x="1708" 
d="M1616 301l-21 -117h-131v-204l-114 -11v215h-410l524 658v-541h152zM1440 1438l-912 -1471h-116l909 1471h119zM694 811q0 -110 -88.5 -183t-220.5 -73q-206 0 -315 152l98 84q76 -111 205 -111q81 0 132.5 39t51.5 100q0 57 -48.5 101.5t-148.5 44.5h-90v114h56
q117 0 159.5 30t42.5 89q0 52 -46 83.5t-115 31.5q-117 0 -177 -90l-100 88q63 70 130 98.5t149 28.5q71 0 137.5 -26t113 -80t46.5 -122q0 -122 -131 -182q78 -32 118.5 -90.5t40.5 -126.5zM1350 301v250h-7l-176 -250h183z" />
    <glyph glyph-name="threesuperior" unicode="&#xb3;" horiz-adv-x="681" 
d="M655 811q0 -110 -88.5 -183t-220.5 -73q-206 0 -315 152l98 84q76 -111 205 -111q81 0 132.5 39t51.5 100q0 57 -48.5 101.5t-147.5 44.5h-91v114h56q117 0 159.5 30t42.5 89q0 52 -46 83.5t-115 31.5q-117 0 -176 -90l-101 88q63 70 130 98.5t149 28.5q71 0 137.5 -26
t113 -80t46.5 -122q0 -122 -131 -182q78 -32 118.5 -90.5t40.5 -126.5z" />
    <glyph glyph-name="twosuperior" unicode="&#xb2;" horiz-adv-x="681" 
d="M649 700l-22 -125h-594l342 365q127 136 127 236q0 65 -48.5 101t-125.5 36q-79 0 -122.5 -48.5t-43.5 -119.5q0 -58 41 -107t100 -61l-76 -82q-100 32 -151 107.5t-51 171.5q0 114 89.5 189t221.5 75q129 0 216 -73t87 -187q0 -51 -23 -107.5t-52.5 -99.5t-83.5 -100
t-87.5 -87.5t-93.5 -83.5h350z" />
    <glyph glyph-name="brokenbar" unicode="&#xa6;" horiz-adv-x="454" 
d="M311 874h-168v531h168v-531zM311 0h-168v530h168v-530z" />
    <glyph glyph-name="multiply" unicode="&#xd7;" horiz-adv-x="1228" 
d="M1133 123l-123 -123l-396 399l-395 -399l-123 123l400 395l-400 395l123 123l395 -399l396 399l123 -123l-400 -395z" />
    <glyph glyph-name="Adieresis" unicode="&#xc4;" horiz-adv-x="1366" 
d="M1399 8l-201 -41l-240 484h-565l-237 -484l-189 41l713 1430h4zM877 635l-201 403l-199 -403h400zM1000 1624l-125 -149l-129 149l129 150zM623 1624l-127 -149l-127 149l127 150z" />
    <glyph glyph-name="Aring" unicode="&#xc5;" horiz-adv-x="1366" 
d="M895 1696q0 -88 -61.5 -149.5t-149.5 -61.5q-90 0 -150.5 61t-60.5 148q0 91 62 152t151 61q86 0 147.5 -62.5t61.5 -148.5zM795 1696q0 44 -32.5 77t-78.5 33q-47 0 -78.5 -32.5t-31.5 -77.5q0 -46 32 -78.5t80 -32.5q44 0 76.5 34t32.5 77zM1399 8l-201 -41l-240 484
h-565l-237 -484l-189 41l713 1430h4zM877 635l-201 403l-199 -403h400z" />
    <glyph glyph-name="Ccedilla" unicode="&#xc7;" horiz-adv-x="1138" 
d="M1038 238l-37 -220q-54 -18 -85 -26.5t-75 -16.5t-85 -8q-188 0 -349 100t-254.5 269.5t-93.5 365.5q0 132 56 266t146.5 237t215 168t252.5 65q108 0 236 -35l43 -217q-102 67 -236 67q-105 0 -200.5 -45.5t-163.5 -120.5t-108 -173.5t-40 -202.5q0 -142 63 -269.5
t181 -208.5t262 -81q140 0 272 86zM936 -272q0 -88 -71.5 -139.5t-190.5 -51.5q-77 0 -197 53l39 82q75 -32 133 -32q123 0 123 81q0 72 -98 72q-41 0 -76 -12l-45 39l135 180h100l-90 -119l4 -4q34 8 52 8q73 0 127.5 -41.5t54.5 -115.5z" />
    <glyph glyph-name="Eacute" unicode="&#xc9;" 
d="M975 184l-57 -184h-781v1405h750l43 -184h-592v-398h473v-184h-473v-455h637zM817 1782l-294 -295h-168l184 295h278z" />
    <glyph glyph-name="Ntilde" unicode="&#xd1;" horiz-adv-x="1366" 
d="M1237 -33h-4l-901 983v-950l-201 -25v1463h4l901 -983v917l201 33v-1438zM1030 1753q-18 -119 -77.5 -178t-150.5 -59q-45 0 -146.5 37.5t-145.5 37.5q-71 0 -86 -90h-117q9 98 70 169t143 71q65 0 162 -39t139 -39q73 0 92 90h117z" />
    <glyph glyph-name="Odieresis" unicode="&#xd6;" horiz-adv-x="1593" 
d="M1534 702q0 -152 -58.5 -288.5t-157.5 -234t-235 -155t-286 -57.5q-200 0 -369.5 97t-269 266t-99.5 372q0 155 60 293t161 234.5t236 152.5t281 56q147 0 282.5 -56t235.5 -153t159.5 -234.5t59.5 -292.5zM1333 702q0 142 -70.5 269t-194.5 204.5t-271 77.5
q-104 0 -202 -43.5t-172 -116.5t-118.5 -176.5t-44.5 -216.5q0 -143 72 -269.5t197 -202.5t270 -76q107 0 206 45t170.5 119.5t114.5 176t43 209.5zM1112 1624l-125 -149l-129 149l129 150zM735 1624l-127 -149l-127 149l127 150z" />
    <glyph glyph-name="Udieresis" unicode="&#xdc;" horiz-adv-x="1251" 
d="M1122 543q0 -218 -50.5 -343t-156.5 -179t-288 -54q-277 0 -387.5 129.5t-110.5 444.5v864l201 33v-998q0 -141 74.5 -214.5t205.5 -73.5q142 0 227 69t85 217v967l200 33v-895zM942 1624l-125 -149l-129 149l129 150zM565 1624l-127 -149l-127 149l127 150z" />
    <glyph glyph-name="aacute" unicode="&#xe1;" 
d="M920 0l-177 -33v144h-4q-39 -74 -113 -109t-202 -35q-166 0 -271.5 116t-105.5 284q0 114 61.5 200.5t153.5 128t197 41.5q172 0 264 -100v80q0 55 -14.5 89t-49 51t-77 22.5t-113.5 5.5q-166 0 -295 -60l53 203q198 41 281 41q223 0 317.5 -95t94.5 -294v-680zM723 367
q0 98 -70 147t-170 49q-104 0 -171.5 -51t-67.5 -143q0 -99 55 -158t170 -59q129 0 191.5 57.5t62.5 157.5zM835 1485l-294 -295h-168l184 295h278z" />
    <glyph glyph-name="agrave" unicode="&#xe0;" 
d="M920 0l-177 -33v144h-4q-39 -74 -113 -109t-202 -35q-166 0 -271.5 116t-105.5 284q0 114 61.5 200.5t153.5 128t197 41.5q172 0 264 -100v80q0 55 -14.5 89t-49 51t-77 22.5t-113.5 5.5q-166 0 -295 -60l53 203q198 41 281 41q223 0 317.5 -95t94.5 -294v-680zM723 367
q0 98 -70 147t-170 49q-104 0 -171.5 -51t-67.5 -143q0 -99 55 -158t170 -59q129 0 191.5 57.5t62.5 157.5zM684 1190h-168l-291 295h275z" />
    <glyph glyph-name="acircumflex" unicode="&#xe2;" 
d="M920 0l-177 -33v144h-4q-39 -74 -113 -109t-202 -35q-166 0 -271.5 116t-105.5 284q0 114 61.5 200.5t153.5 128t197 41.5q172 0 264 -100v80q0 55 -14.5 89t-49 51t-77 22.5t-113.5 5.5q-166 0 -295 -60l53 203q198 41 281 41q223 0 317.5 -95t94.5 -294v-680zM723 367
q0 98 -70 147t-170 49q-104 0 -171.5 -51t-67.5 -143q0 -99 55 -158t170 -59q129 0 191.5 57.5t62.5 157.5zM864 1190h-188l-146 182l-143 -182h-188l219 295h227z" />
    <glyph glyph-name="adieresis" unicode="&#xe4;" 
d="M920 0l-177 -33v144h-4q-39 -74 -113 -109t-202 -35q-166 0 -271.5 116t-105.5 284q0 114 61.5 200.5t153.5 128t197 41.5q172 0 264 -100v80q0 55 -14.5 89t-49 51t-77 22.5t-113.5 5.5q-166 0 -295 -60l53 203q198 41 281 41q223 0 317.5 -95t94.5 -294v-680zM723 367
q0 98 -70 147t-170 49q-104 0 -171.5 -51t-67.5 -143q0 -99 55 -158t170 -59q129 0 191.5 57.5t62.5 157.5zM846 1327l-125 -149l-129 149l129 150zM469 1327l-127 -149l-127 149l127 150z" />
    <glyph glyph-name="atilde" unicode="&#xe3;" 
d="M920 0l-177 -33v144h-4q-39 -74 -113 -109t-202 -35q-166 0 -271.5 116t-105.5 284q0 114 61.5 200.5t153.5 128t197 41.5q172 0 264 -100v80q0 55 -14.5 89t-49 51t-77 22.5t-113.5 5.5q-166 0 -295 -60l53 203q198 41 281 41q223 0 317.5 -95t94.5 -294v-680zM723 367
q0 98 -70 147t-170 49q-104 0 -171.5 -51t-67.5 -143q0 -99 55 -158t170 -59q129 0 191.5 57.5t62.5 157.5zM891 1456q-18 -119 -77.5 -178t-150.5 -59q-45 0 -146.5 37.5t-145.5 37.5q-71 0 -86 -90h-117q9 98 70 169t143 71q65 0 162 -39t139 -39q73 0 92 90h117z" />
    <glyph glyph-name="aring" unicode="&#xe5;" 
d="M741 1399q0 -88 -61.5 -149.5t-149.5 -61.5q-90 0 -150.5 61t-60.5 148q0 91 62 152t151 61q86 0 147.5 -62.5t61.5 -148.5zM641 1399q0 44 -32.5 77t-78.5 33q-47 0 -78.5 -32.5t-31.5 -77.5q0 -46 32 -78.5t80 -32.5q44 0 76.5 34t32.5 77zM920 0l-177 -33v144h-4
q-39 -74 -113 -109t-202 -35q-166 0 -271.5 116t-105.5 284q0 114 61.5 200.5t153.5 128t197 41.5q172 0 264 -100v80q0 55 -14.5 89t-49 51t-77 22.5t-113.5 5.5q-166 0 -295 -60l53 203q198 41 281 41q223 0 317.5 -95t94.5 -294v-680zM723 367q0 98 -70 147t-170 49
q-104 0 -171.5 -51t-67.5 -143q0 -99 55 -158t170 -59q129 0 191.5 57.5t62.5 157.5z" />
    <glyph glyph-name="ccedilla" unicode="&#xe7;" 
d="M979 145q-177 -178 -387 -178q-143 0 -266 75t-194 200t-71 268q0 119 41.5 223.5t112 178t166 115.5t201.5 42q220 0 391 -145l-119 -136q-25 17 -45 31.5t-42.5 26.5t-46.5 21t-55.5 13.5t-70.5 4.5q-77 0 -142 -32.5t-106.5 -85t-64.5 -117.5t-23 -132
q0 -78 32 -148.5t81 -117t106 -73.5t109 -27q75 0 136.5 27t129.5 95zM803 -272q0 -88 -71.5 -139.5t-190.5 -51.5q-77 0 -197 53l39 82q75 -32 133 -32q123 0 123 81q0 72 -98 72q-41 0 -76 -12l-45 39l135 180h100l-90 -119l4 -4q34 8 52 8q73 0 127.5 -41.5t54.5 -115.5z
" />
    <glyph glyph-name="eacute" unicode="&#xe9;" horiz-adv-x="1138" 
d="M1053 784l-729 -465q105 -167 280 -167q91 0 179.5 43t209.5 137l39 -207q-52 -36 -88.5 -58t-90.5 -48t-112 -39t-120 -13q-164 0 -290 76t-193.5 207t-67.5 295q0 141 72 262.5t191.5 191.5t256.5 70q157 0 266.5 -71t196.5 -214zM782 817q-24 30 -69.5 49t-102.5 19
q-83 0 -150.5 -29t-110 -78t-65 -111.5t-22.5 -131.5q0 -12 4 -46zM892 1485l-294 -295h-168l184 295h278z" />
    <glyph glyph-name="egrave" unicode="&#xe8;" horiz-adv-x="1138" 
d="M1053 784l-729 -465q105 -167 280 -167q91 0 179.5 43t209.5 137l39 -207q-52 -36 -88.5 -58t-90.5 -48t-112 -39t-120 -13q-164 0 -290 76t-193.5 207t-67.5 295q0 141 72 262.5t191.5 191.5t256.5 70q157 0 266.5 -71t196.5 -214zM782 817q-24 30 -69.5 49t-102.5 19
q-83 0 -150.5 -29t-110 -78t-65 -111.5t-22.5 -131.5q0 -12 4 -46zM741 1190h-168l-291 295h275z" />
    <glyph glyph-name="ecircumflex" unicode="&#xea;" horiz-adv-x="1138" 
d="M1053 784l-729 -465q105 -167 280 -167q91 0 179.5 43t209.5 137l39 -207q-52 -36 -88.5 -58t-90.5 -48t-112 -39t-120 -13q-164 0 -290 76t-193.5 207t-67.5 295q0 141 72 262.5t191.5 191.5t256.5 70q157 0 266.5 -71t196.5 -214zM782 817q-24 30 -69.5 49t-102.5 19
q-83 0 -150.5 -29t-110 -78t-65 -111.5t-22.5 -131.5q0 -12 4 -46zM921 1190h-188l-146 182l-143 -182h-188l219 295h227z" />
    <glyph glyph-name="edieresis" unicode="&#xeb;" horiz-adv-x="1138" 
d="M1053 784l-729 -465q105 -167 280 -167q91 0 179.5 43t209.5 137l39 -207q-52 -36 -88.5 -58t-90.5 -48t-112 -39t-120 -13q-164 0 -290 76t-193.5 207t-67.5 295q0 141 72 262.5t191.5 191.5t256.5 70q157 0 266.5 -71t196.5 -214zM782 817q-24 30 -69.5 49t-102.5 19
q-83 0 -150.5 -29t-110 -78t-65 -111.5t-22.5 -131.5q0 -12 4 -46zM903 1327l-125 -149l-129 149l129 150zM526 1327l-127 -149l-127 149l127 150z" />
    <glyph glyph-name="iacute" unicode="&#xed;" horiz-adv-x="454" 
d="M326 0l-197 -33v1069l197 33v-1069zM532 1485l-294 -295h-168l184 295h278z" />
    <glyph glyph-name="igrave" unicode="&#xec;" horiz-adv-x="454" 
d="M326 0l-197 -33v1069l197 33v-1069zM381 1190h-168l-291 295h275z" />
    <glyph glyph-name="icircumflex" unicode="&#xee;" horiz-adv-x="454" 
d="M326 0l-197 -33v1069l197 33v-1069zM561 1190h-188l-146 182l-143 -182h-188l219 295h227z" />
    <glyph glyph-name="idieresis" unicode="&#xef;" horiz-adv-x="454" 
d="M326 0l-197 -33v1069l197 33v-1069zM543 1327l-125 -149l-129 149l129 150zM166 1327l-127 -149l-127 149l127 150z" />
    <glyph glyph-name="ntilde" unicode="&#xf1;" horiz-adv-x="1138" 
d="M1026 0l-197 -33v719q0 209 -233 209q-131 0 -210 -85t-79 -230v-580l-196 -33v1069l196 33v-154h4q43 75 124.5 114.5t187.5 39.5q54 0 106 -9.5t107 -35t96 -64.5t67.5 -104.5t26.5 -148.5v-707zM930 1456q-18 -119 -77.5 -178t-150.5 -59q-45 0 -146.5 37.5
t-145.5 37.5q-71 0 -86 -90h-117q9 98 70 169t143 71q65 0 162 -39t139 -39q73 0 92 90h117z" />
    <glyph glyph-name="oacute" unicode="&#xf3;" horiz-adv-x="1251" 
d="M1190 516q0 -150 -76 -276.5t-205.5 -199.5t-281.5 -73q-118 0 -223.5 44t-180.5 118.5t-118.5 176t-43.5 212.5q0 153 77 280.5t206 199t281 71.5q153 0 282.5 -72.5t206 -200.5t76.5 -280zM993 512q0 158 -107.5 265.5t-260.5 107.5q-149 0 -258 -106.5t-109 -260.5
q0 -153 107.5 -259.5t259.5 -106.5q159 0 263.5 110t104.5 250zM931 1485l-294 -295h-168l184 295h278z" />
    <glyph glyph-name="ograve" unicode="&#xf2;" horiz-adv-x="1251" 
d="M1190 516q0 -150 -76 -276.5t-205.5 -199.5t-281.5 -73q-118 0 -223.5 44t-180.5 118.5t-118.5 176t-43.5 212.5q0 153 77 280.5t206 199t281 71.5q153 0 282.5 -72.5t206 -200.5t76.5 -280zM993 512q0 158 -107.5 265.5t-260.5 107.5q-149 0 -258 -106.5t-109 -260.5
q0 -153 107.5 -259.5t259.5 -106.5q159 0 263.5 110t104.5 250zM780 1190h-168l-291 295h275z" />
    <glyph glyph-name="ocircumflex" unicode="&#xf4;" horiz-adv-x="1251" 
d="M1190 516q0 -150 -76 -276.5t-205.5 -199.5t-281.5 -73q-118 0 -223.5 44t-180.5 118.5t-118.5 176t-43.5 212.5q0 153 77 280.5t206 199t281 71.5q153 0 282.5 -72.5t206 -200.5t76.5 -280zM993 512q0 158 -107.5 265.5t-260.5 107.5q-149 0 -258 -106.5t-109 -260.5
q0 -153 107.5 -259.5t259.5 -106.5q159 0 263.5 110t104.5 250zM960 1190h-188l-146 182l-143 -182h-188l219 295h227z" />
    <glyph glyph-name="odieresis" unicode="&#xf6;" horiz-adv-x="1251" 
d="M1190 516q0 -150 -76 -276.5t-205.5 -199.5t-281.5 -73q-118 0 -223.5 44t-180.5 118.5t-118.5 176t-43.5 212.5q0 153 77 280.5t206 199t281 71.5q153 0 282.5 -72.5t206 -200.5t76.5 -280zM993 512q0 158 -107.5 265.5t-260.5 107.5q-149 0 -258 -106.5t-109 -260.5
q0 -153 107.5 -259.5t259.5 -106.5q159 0 263.5 110t104.5 250zM942 1327l-125 -149l-129 149l129 150zM565 1327l-127 -149l-127 149l127 150z" />
    <glyph glyph-name="otilde" unicode="&#xf5;" horiz-adv-x="1251" 
d="M1190 516q0 -150 -76 -276.5t-205.5 -199.5t-281.5 -73q-118 0 -223.5 44t-180.5 118.5t-118.5 176t-43.5 212.5q0 153 77 280.5t206 199t281 71.5q153 0 282.5 -72.5t206 -200.5t76.5 -280zM993 512q0 158 -107.5 265.5t-260.5 107.5q-149 0 -258 -106.5t-109 -260.5
q0 -153 107.5 -259.5t259.5 -106.5q159 0 263.5 110t104.5 250zM987 1456q-18 -119 -77.5 -178t-150.5 -59q-45 0 -146.5 37.5t-145.5 37.5q-71 0 -86 -90h-117q9 98 70 169t143 71q65 0 162 -39t139 -39q73 0 92 90h117z" />
    <glyph glyph-name="uacute" unicode="&#xfa;" horiz-adv-x="1138" 
d="M1026 0l-192 -33v154h-5q-39 -66 -119.5 -110t-193.5 -44q-80 0 -149.5 19.5t-128.5 59.5t-93 110t-34 163v717l196 33v-723q0 -104 61 -154.5t169 -50.5q51 0 99 15.5t93 49t72.5 98.5t27.5 153v579l197 33v-1069zM874 1485l-294 -295h-168l184 295h278z" />
    <glyph glyph-name="ugrave" unicode="&#xf9;" horiz-adv-x="1138" 
d="M1026 0l-192 -33v154h-5q-39 -66 -119.5 -110t-193.5 -44q-80 0 -149.5 19.5t-128.5 59.5t-93 110t-34 163v717l196 33v-723q0 -104 61 -154.5t169 -50.5q51 0 99 15.5t93 49t72.5 98.5t27.5 153v579l197 33v-1069zM723 1190h-168l-291 295h275z" />
    <glyph glyph-name="ucircumflex" unicode="&#xfb;" horiz-adv-x="1138" 
d="M1026 0l-192 -33v154h-5q-39 -66 -119.5 -110t-193.5 -44q-80 0 -149.5 19.5t-128.5 59.5t-93 110t-34 163v717l196 33v-723q0 -104 61 -154.5t169 -50.5q51 0 99 15.5t93 49t72.5 98.5t27.5 153v579l197 33v-1069zM903 1190h-188l-146 182l-143 -182h-188l219 295h227z
" />
    <glyph glyph-name="udieresis" unicode="&#xfc;" horiz-adv-x="1138" 
d="M1026 0l-192 -33v154h-5q-39 -66 -119.5 -110t-193.5 -44q-80 0 -149.5 19.5t-128.5 59.5t-93 110t-34 163v717l196 33v-723q0 -104 61 -154.5t169 -50.5q51 0 99 15.5t93 49t72.5 98.5t27.5 153v579l197 33v-1069zM885 1327l-125 -149l-129 149l129 150zM508 1327
l-127 -149l-127 149l127 150z" />
    <glyph glyph-name="degree" unicode="&#xb0;" horiz-adv-x="819" 
d="M702 1145q0 -122 -85 -207.5t-207 -85.5q-124 0 -208.5 85.5t-84.5 207.5t84.5 207.5t208.5 85.5q122 0 207 -85t85 -208zM594 1145q0 70 -56.5 127t-127.5 57t-128 -56.5t-57 -129.5q0 -68 56.5 -125t128.5 -57q71 0 127.5 56t56.5 128z" />
    <glyph glyph-name="registered" unicode="&#xae;" horiz-adv-x="1638" 
d="M1565 702q0 -209 -103 -379t-273 -263t-368 -93q-152 0 -289.5 55.5t-238.5 151.5t-161 234t-60 294q0 159 60.5 297.5t162.5 233.5t239 150t287 55t286.5 -55.5t237.5 -152t160.5 -234.5t59.5 -294zM1401 702q0 129 -45.5 242t-123.5 192.5t-185 125t-226 45.5
q-164 0 -298 -78.5t-210.5 -217t-76.5 -309.5q0 -168 76 -306.5t210.5 -218t298.5 -79.5t297.5 81t208 219t74.5 304zM1171 283h-149l-217 362h-133v-362h-140v839h324q161 0 231 -61.5t70 -179.5q0 -205 -221 -230zM1018 891q0 117 -174 117h-172v-248h168q93 0 135.5 29.5
t42.5 101.5z" />
    <glyph glyph-name="copyright" unicode="&#xa9;" horiz-adv-x="1638" 
d="M1565 702q0 -209 -103 -379t-273 -263t-368 -93q-152 0 -289.5 55.5t-238.5 151.5t-161 234t-60 294q0 159 60.5 297.5t162.5 233.5t239 150t287 55t286.5 -55.5t237.5 -152t160.5 -234.5t59.5 -294zM1401 702q0 129 -45.5 242t-123.5 192.5t-185 125t-226 45.5
q-164 0 -298 -78.5t-210.5 -217t-76.5 -309.5q0 -168 76 -306.5t210.5 -218t298.5 -79.5t297.5 81t208 219t74.5 304zM1206 571q-22 -126 -116 -218.5t-244 -92.5q-97 0 -179 35.5t-137 96t-85.5 142t-30.5 173.5q0 195 116 319.5t314 124.5q142 0 241 -79.5t119 -225.5
h-139q-13 78 -76 126t-149 48q-120 0 -191 -85t-71 -226q0 -136 75 -227t191 -91q84 0 146 46.5t75 133.5h141z" />
    <glyph glyph-name="trademark" unicode="&#x2122;" horiz-adv-x="2027" 
d="M1909 594h-156v635h-4l-252 -635h-115l-252 635h-4v-635h-155v811h239l232 -571l229 571h238v-811zM799 1278h-262v-684h-156v684h-262v127h680v-127z" />
    <glyph glyph-name="plusminus" unicode="&#xb1;" horiz-adv-x="1228" 
d="M1133 555h-435v-315h-168v315h-434v168h434v313h168v-313h435v-168zM1133 0h-1037v168h1037v-168z" />
    <glyph glyph-name="logicalnot" unicode="&#xac;" horiz-adv-x="1228" 
d="M1133 223h-168v424h-869v168h1037v-592z" />
    <glyph glyph-name="nbspace" unicode="&#xa0;" 
 />
    <glyph glyph-name="Agrave" unicode="&#xc0;" horiz-adv-x="1366" 
d="M1399 8l-201 -41l-240 484h-565l-237 -484l-189 41l713 1430h4zM877 635l-201 403l-199 -403h400zM838 1487h-168l-291 295h275z" />
    <glyph glyph-name="Atilde" unicode="&#xc3;" horiz-adv-x="1366" 
d="M1399 8l-201 -41l-240 484h-565l-237 -484l-189 41l713 1430h4zM877 635l-201 403l-199 -403h400zM1045 1753q-18 -119 -77.5 -178t-150.5 -59q-45 0 -146.5 37.5t-145.5 37.5q-71 0 -86 -90h-117q9 98 70 169t143 71q65 0 162 -39t139 -39q73 0 92 90h117z" />
    <glyph glyph-name="Otilde" unicode="&#xd5;" horiz-adv-x="1593" 
d="M1534 702q0 -152 -58.5 -288.5t-157.5 -234t-235 -155t-286 -57.5q-200 0 -369.5 97t-269 266t-99.5 372q0 155 60 293t161 234.5t236 152.5t281 56q147 0 282.5 -56t235.5 -153t159.5 -234.5t59.5 -292.5zM1333 702q0 142 -70.5 269t-194.5 204.5t-271 77.5
q-104 0 -202 -43.5t-172 -116.5t-118.5 -176.5t-44.5 -216.5q0 -143 72 -269.5t197 -202.5t270 -76q107 0 206 45t170.5 119.5t114.5 176t43 209.5zM1157 1753q-18 -119 -77.5 -178t-150.5 -59q-45 0 -146.5 37.5t-145.5 37.5q-71 0 -86 -90h-117q9 98 70 169t143 71
q65 0 162 -39t139 -39q73 0 92 90h117z" />
    <glyph glyph-name="divide" unicode="&#xf7;" horiz-adv-x="1228" 
d="M762 942q0 -60 -44 -103.5t-104 -43.5q-59 0 -103 44t-44 101q0 61 44 105.5t105 44.5q58 0 102 -44t44 -104zM1133 434h-1037v168h1037v-168zM762 94q0 -60 -44 -103.5t-104 -43.5q-59 0 -103 44t-44 101q0 61 44 105.5t105 44.5q58 0 102 -44t44 -104z" />
    <glyph glyph-name="ydieresis" unicode="&#xff;" horiz-adv-x="909" 
d="M940 1036l-657 -1372l-177 49l265 518l-404 805l172 33l326 -637l303 637zM770 1327l-125 -149l-129 149l129 150zM393 1327l-127 -149l-127 149l127 150z" />
    <glyph glyph-name="Ydieresis" unicode="&#x178;" 
d="M1059 1378l-631 -1411l-197 43l246 531l-510 839l197 58l407 -684l295 684zM867 1624l-125 -149l-129 149l129 150zM490 1624l-127 -149l-127 149l127 150z" />
    <glyph glyph-name="Acircumflex" unicode="&#xc2;" horiz-adv-x="1366" 
d="M1399 8l-201 -41l-240 484h-565l-237 -484l-189 41l713 1430h4zM877 635l-201 403l-199 -403h400zM1018 1487h-188l-146 182l-143 -182h-188l219 295h227z" />
    <glyph glyph-name="Ecircumflex" unicode="&#xca;" 
d="M975 184l-57 -184h-781v1405h750l43 -184h-592v-398h473v-184h-473v-455h637zM846 1487h-188l-146 182l-143 -182h-188l219 295h227z" />
    <glyph glyph-name="Aacute" unicode="&#xc1;" horiz-adv-x="1366" 
d="M1399 8l-201 -41l-240 484h-565l-237 -484l-189 41l713 1430h4zM877 635l-201 403l-199 -403h400zM989 1782l-294 -295h-168l184 295h278z" />
    <glyph glyph-name="Edieresis" unicode="&#xcb;" 
d="M975 184l-57 -184h-781v1405h750l43 -184h-592v-398h473v-184h-473v-455h637zM828 1624l-125 -149l-129 149l129 150zM451 1624l-127 -149l-127 149l127 150z" />
    <glyph glyph-name="Egrave" unicode="&#xc8;" 
d="M975 184l-57 -184h-781v1405h750l43 -184h-592v-398h473v-184h-473v-455h637zM666 1487h-168l-291 295h275z" />
    <glyph glyph-name="Iacute" unicode="&#xcd;" horiz-adv-x="454" 
d="M328 0l-201 -16v1421l201 33v-1438zM522 1782l-294 -295h-168l184 295h278z" />
    <glyph glyph-name="Icircumflex" unicode="&#xce;" horiz-adv-x="454" 
d="M328 0l-201 -16v1421l201 33v-1438zM551 1487h-188l-146 182l-143 -182h-188l219 295h227z" />
    <glyph glyph-name="Idieresis" unicode="&#xcf;" horiz-adv-x="454" 
d="M328 0l-201 -16v1421l201 33v-1438zM533 1624l-125 -149l-129 149l129 150zM156 1624l-127 -149l-127 149l127 150z" />
    <glyph glyph-name="Igrave" unicode="&#xcc;" horiz-adv-x="454" 
d="M328 0l-201 -16v1421l201 33v-1438zM371 1487h-168l-291 295h275z" />
    <glyph glyph-name="Oacute" unicode="&#xd3;" horiz-adv-x="1593" 
d="M1534 702q0 -152 -58.5 -288.5t-157.5 -234t-235 -155t-286 -57.5q-200 0 -369.5 97t-269 266t-99.5 372q0 155 60 293t161 234.5t236 152.5t281 56q147 0 282.5 -56t235.5 -153t159.5 -234.5t59.5 -292.5zM1333 702q0 142 -70.5 269t-194.5 204.5t-271 77.5
q-104 0 -202 -43.5t-172 -116.5t-118.5 -176.5t-44.5 -216.5q0 -143 72 -269.5t197 -202.5t270 -76q107 0 206 45t170.5 119.5t114.5 176t43 209.5zM1101 1782l-294 -295h-168l184 295h278z" />
    <glyph glyph-name="Ocircumflex" unicode="&#xd4;" horiz-adv-x="1593" 
d="M1534 702q0 -152 -58.5 -288.5t-157.5 -234t-235 -155t-286 -57.5q-200 0 -369.5 97t-269 266t-99.5 372q0 155 60 293t161 234.5t236 152.5t281 56q147 0 282.5 -56t235.5 -153t159.5 -234.5t59.5 -292.5zM1333 702q0 142 -70.5 269t-194.5 204.5t-271 77.5
q-104 0 -202 -43.5t-172 -116.5t-118.5 -176.5t-44.5 -216.5q0 -143 72 -269.5t197 -202.5t270 -76q107 0 206 45t170.5 119.5t114.5 176t43 209.5zM1130 1487h-188l-146 182l-143 -182h-188l219 295h227z" />
    <glyph glyph-name="Ograve" unicode="&#xd2;" horiz-adv-x="1593" 
d="M1534 702q0 -152 -58.5 -288.5t-157.5 -234t-235 -155t-286 -57.5q-200 0 -369.5 97t-269 266t-99.5 372q0 155 60 293t161 234.5t236 152.5t281 56q147 0 282.5 -56t235.5 -153t159.5 -234.5t59.5 -292.5zM1333 702q0 142 -70.5 269t-194.5 204.5t-271 77.5
q-104 0 -202 -43.5t-172 -116.5t-118.5 -176.5t-44.5 -216.5q0 -143 72 -269.5t197 -202.5t270 -76q107 0 206 45t170.5 119.5t114.5 176t43 209.5zM950 1487h-168l-291 295h275z" />
    <glyph glyph-name="Uacute" unicode="&#xda;" horiz-adv-x="1251" 
d="M1122 543q0 -218 -50.5 -343t-156.5 -179t-288 -54q-277 0 -387.5 129.5t-110.5 444.5v864l201 33v-998q0 -141 74.5 -214.5t205.5 -73.5q142 0 227 69t85 217v967l200 33v-895zM931 1782l-294 -295h-168l184 295h278z" />
    <glyph glyph-name="Ucircumflex" unicode="&#xdb;" horiz-adv-x="1251" 
d="M1122 543q0 -218 -50.5 -343t-156.5 -179t-288 -54q-277 0 -387.5 129.5t-110.5 444.5v864l201 33v-998q0 -141 74.5 -214.5t205.5 -73.5q142 0 227 69t85 217v967l200 33v-895zM960 1487h-188l-146 182l-143 -182h-188l219 295h227z" />
    <glyph glyph-name="Ugrave" unicode="&#xd9;" horiz-adv-x="1251" 
d="M1122 543q0 -218 -50.5 -343t-156.5 -179t-288 -54q-277 0 -387.5 129.5t-110.5 444.5v864l201 33v-998q0 -141 74.5 -214.5t205.5 -73.5q142 0 227 69t85 217v967l200 33v-895zM780 1487h-168l-291 295h275z" />
  </font>
</defs>
</svg>
